# xmcd
#
# Track frame offsets: 
#        150
#        17361
#        35372
#        56105
#        73645
#        92401
#        113616
#        128577
#        148454
#        164410
#        187539
#
# Disc length: 2734 seconds
#
# Revision: 0
# Processed by: cddbd v1.5.1PL0 Copyright (c) Steve Scherf et al.
# Submitted via: ExactAudioCopy v0.95a5
#
DISCID=880aac0b
DTITLE=Ryan Bingham - Wishbone Saloon
DYEAR=2002
DGENRE=Country
TTITLE0=Freight Train
TTITLE1=Wishbone Saloon
TTITLE2=Bandito
TTITLE3=Roadhouse Gypsy
TTITLE4=Hurricane
TTITLE5=Boys Town
TTITLE6=Honey
TTITLE7=Honkytonk Man
TTITLE8=Long Way From Georgia
TTITLE9=Southside of Heaven
TTITLE10=The Highway
EXTD=
EXTT0=
EXTT1=
EXTT2=
EXTT3=
EXTT4=
EXTT5=
EXTT6=
EXTT7=
EXTT8=
EXTT9=
EXTT10=
PLAYORDER=
